<?xml version="1.0" standalone="no"?>
<!DOCTYPE svg PUBLIC "-//W3C//DTD SVG 20010904//EN"
 "http://www.w3.org/TR/2001/REC-SVG-20010904/DTD/svg10.dtd">
<svg version="1.0" xmlns="http://www.w3.org/2000/svg"
 width="256.000000pt" height="234.000000pt" viewBox="0 0 256.000000 234.000000"
 preserveAspectRatio="xMidYMid meet">

<g transform="translate(0.000000,234.000000) scale(0.100000,-0.100000)"
fill="#000000" stroke="none">
<path d="M1045 2325 c-285 -40 -637 -169 -671 -246 -7 -17 -8 -196 -4 -589 l6
-565 32 -97 c29 -87 65 -171 101 -237 l13 -23 24 36 c14 20 31 36 39 36 11 0
7 17 -16 68 -76 166 -99 265 -99 428 l0 124 405 0 405 0 0 -411 0 -412 78 7
c218 19 416 79 559 169 55 35 67 34 93 -8 12 -19 23 -35 26 -35 8 0 75 142 99
208 59 166 58 149 56 752 -1 305 -5 558 -9 561 -29 26 -238 124 -327 153 -242
80 -577 114 -810 81z m455 -110 c201 -24 348 -66 495 -143 l90 -47 0 -380 0
-380 -402 -3 -403 -2 0 485 0 485 53 0 c28 0 104 -7 167 -15z m-678 -251 c23
-22 74 -26 89 -8 15 19 39 18 39 -1 0 -8 -4 -15 -9 -15 -12 0 -23 -29 -15 -42
4 -5 16 0 29 12 28 26 46 8 20 -20 -25 -27 -9 -45 21 -25 35 22 51 8 24 -20
-30 -32 -18 -48 20 -27 37 22 50 9 21 -22 -28 -29 -12 -44 23 -21 33 22 45 1
16 -30 -14 -15 -18 -25 -10 -30 8 -5 8 -11 0 -20 -7 -9 -6 -16 5 -25 16 -13
21 -50 7 -50 -5 0 -17 9 -27 20 -12 14 -22 17 -29 10 -6 -6 -3 -16 9 -30 14
-16 16 -23 7 -32 -9 -9 -18 -6 -36 11 -28 26 -48 11 -22 -18 32 -35 10 -57
-25 -25 -29 26 -44 6 -18 -22 18 -19 20 -27 10 -37 -10 -9 -16 -7 -32 12 -15
18 -23 21 -31 13 -9 -9 -7 -17 7 -32 15 -16 16 -23 6 -33 -9 -9 -16 -8 -29 9
-19 23 -61 26 -86 5 -9 -7 -23 -10 -32 -7 -15 6 -14 9 6 31 30 32 16 54 -16
24 -19 -17 -27 -20 -36 -11 -9 9 -6 17 11 36 26 28 11 48 -18 22 -35 -32 -57
-10 -25 25 26 28 6 44 -22 18 -21 -20 -24 -20 -30 -5 -4 10 1 24 10 35 30 33
8 45 -26 14 -14 -12 -21 -14 -30 -5 -9 9 -7 17 7 32 23 25 27 69 7 92 -22 27
-4 43 22 19 14 -13 26 -17 35 -11 12 7 12 11 -2 25 -18 17 -23 45 -8 45 5 0
14 -7 21 -15 13 -16 40 -21 40 -7 0 5 -7 17 -15 28 -8 10 -15 22 -15 27 0 12
23 8 41 -9 26 -23 42 -8 23 21 -23 35 -8 52 21 25 32 -30 52 -17 25 17 -29 37
-13 58 22 27z m1083 -832 c12 -56 -35 -112 -94 -112 -24 0 -73 -21 -68 -29 25
-44 38 -90 34 -118 -7 -40 -125 -194 -162 -211 -85 -39 -185 29 -185 126 0 33
9 52 56 113 77 102 99 119 154 119 25 0 51 -4 59 -9 9 -6 25 -2 45 9 17 10 47
21 66 25 51 10 70 32 70 77 0 44 16 51 25 10z"/>
<path d="M1513 1887 c-84 -28 -153 -55 -153 -60 0 -4 16 -15 36 -23 27 -11 34
-19 29 -32 -4 -9 -9 -26 -12 -37 -3 -11 -10 -30 -16 -43 -8 -17 -8 -28 1 -43
10 -15 9 -26 -3 -56 -9 -21 -23 -46 -33 -56 -16 -18 -16 -20 3 -33 51 -37 74
1 76 126 2 125 10 145 68 171 84 38 169 68 175 62 10 -10 7 -33 -4 -33 -6 0
-48 -14 -93 -32 l-82 -31 86 -29 86 -29 157 53 c87 29 159 58 159 63 2 10
-284 113 -313 113 -8 0 -84 -23 -167 -51z"/>
<path d="M1476 1723 c-3 -8 1 -21 10 -30 9 -9 14 -28 12 -47 -3 -27 2 -33 36
-50 81 -40 268 -29 322 18 21 17 26 31 27 74 1 29 1 52 -1 52 -2 0 -48 -15
-103 -34 l-99 -35 -99 34 c-84 28 -100 31 -105 18z"/>
<path d="M839 1893 c-8 -10 -53 -52 -99 -94 l-85 -77 61 -63 c34 -35 77 -82
96 -104 l36 -39 101 93 c55 51 101 95 101 98 0 10 -175 201 -185 202 -6 1 -17
-7 -26 -16z"/>
<path d="M1585 971 c-16 -19 -16 -21 5 -50 12 -17 25 -31 29 -31 12 0 71 87
64 94 -15 14 -80 5 -98 -13z"/>
<path d="M1682 913 c-32 -42 -33 -45 -15 -58 10 -8 21 -15 25 -15 3 0 13 -2
21 -6 19 -7 40 45 32 79 -12 48 -28 48 -63 0z"/>
<path d="M1501 870 c-46 -58 -51 -89 -22 -136 30 -49 96 -66 136 -37 14 10 85
99 85 105 0 3 -11 9 -24 12 -13 3 -49 29 -80 56 l-55 51 -40 -51z"/>
<path d="M905 1058 c-3 -7 -21 -83 -40 -168 -20 -85 -38 -163 -41 -172 -4 -13
0 -18 15 -18 11 0 22 3 24 8 5 7 87 346 87 357 0 11 -41 4 -45 -7z"/>
<path d="M705 949 c-62 -33 -90 -53 -90 -66 0 -12 28 -32 90 -65 50 -26 94
-47 98 -47 5 -1 7 9 5 22 -2 16 -21 31 -72 56 l-69 35 72 35 c47 23 71 41 71
53 0 9 -3 19 -7 21 -5 2 -48 -18 -98 -44z"/>
<path d="M970 976 c0 -20 12 -30 66 -55 36 -17 63 -34 60 -39 -2 -4 -32 -21
-65 -37 -49 -23 -61 -33 -61 -52 0 -22 3 -22 95 24 74 37 95 52 95 68 0 16
-21 31 -95 68 -94 46 -95 47 -95 23z"/>
<path d="M271 658 c-16 -35 -34 -80 -42 -100 -12 -34 -22 -41 -116 -85 -57
-26 -103 -51 -103 -54 0 -8 110 -105 180 -160 69 -54 176 -120 270 -168 l85
-44 -92 94 c-140 142 -136 114 -33 269 l88 133 -71 55 c-40 30 -87 70 -105 89
l-33 34 -28 -63z"/>
<path d="M2239 694 c-13 -14 -61 -55 -106 -91 l-82 -65 90 -135 91 -135 -63
-65 c-34 -36 -85 -87 -113 -115 l-51 -49 100 52 c124 65 273 166 375 256 43
37 79 70 79 73 1 3 -29 18 -67 33 -130 55 -140 64 -176 152 -50 123 -48 120
-77 89z"/>
<path d="M476 455 c-58 -91 -107 -170 -109 -176 -2 -13 163 -104 273 -150 265
-112 603 -152 890 -107 36 5 79 12 95 15 49 7 214 59 298 92 93 37 142 61 219
107 l57 35 -111 172 c-61 95 -112 173 -113 175 -1 2 -26 -11 -55 -28 -121 -72
-277 -126 -440 -155 -95 -17 -338 -12 -440 8 -118 24 -256 73 -356 127 -51 28
-95 50 -97 50 -2 0 -52 -74 -111 -165z m146 -30 c-17 -37 -16 -39 23 -58 l35
-17 17 35 c17 35 27 42 37 26 5 -7 -57 -157 -70 -170 -2 -3 -9 0 -14 5 -7 7
-6 22 5 46 l15 36 -33 13 c-17 7 -35 14 -38 16 -3 2 -13 -12 -22 -32 -16 -33
-31 -44 -40 -27 -3 4 13 45 34 91 30 64 42 82 51 73 9 -9 9 -18 0 -37z m1288
20 c0 -8 -8 -15 -18 -15 -11 0 -27 -9 -37 -21 -18 -18 -18 -23 -5 -62 13 -37
19 -42 48 -45 21 -2 41 3 52 13 12 11 20 13 25 5 18 -29 -68 -70 -105 -50 -30
16 -60 69 -60 107 0 23 8 38 31 57 34 29 69 34 69 11z m-120 -55 c0 -5 -11
-12 -25 -16 -30 -7 -30 -6 -5 -79 23 -68 25 -85 7 -85 -7 0 -23 31 -35 69
l-23 70 -36 -3 c-31 -3 -39 -10 -56 -42 l-20 -38 49 -43 c42 -36 46 -43 27
-43 -13 0 -40 16 -62 35 -21 19 -41 35 -44 35 -3 0 -1 -15 4 -32 13 -45 11
-58 -6 -58 -8 0 -17 10 -19 23 -3 12 -12 52 -20 90 -13 64 -13 67 5 67 13 0
19 -7 19 -22 0 -49 17 -52 41 -6 22 40 30 45 104 69 78 26 95 27 95 9z m-942
-15 c29 -9 52 -21 52 -27 0 -37 -44 -168 -56 -168 -18 0 -18 12 4 92 l19 67
-23 5 c-12 3 -29 8 -37 12 -11 4 -20 -12 -37 -70 -15 -50 -28 -76 -38 -76 -16
0 -16 1 13 113 20 75 21 76 103 52z m150 -35 c33 0 57 -14 48 -28 -3 -6 -19
-7 -41 -2 -38 9 -39 8 -50 -70 -10 -66 -15 -80 -31 -80 -17 0 -17 -3 -3 79 17
109 18 113 35 107 9 -3 28 -6 42 -6z m260 -132 c-2 -56 -6 -73 -17 -73 -12 0
-14 13 -12 58 l2 57 -29 0 c-25 0 -30 -5 -36 -31 -3 -17 -6 -42 -6 -55 0 -15
-6 -24 -15 -24 -11 0 -15 12 -15 48 0 87 4 92 72 92 l59 0 -3 -72z m144 55
c26 -29 30 -60 14 -91 -36 -69 -126 -39 -126 42 0 55 77 88 112 49z"/>
<path d="M1336 244 c-32 -32 -8 -92 32 -80 17 6 22 15 22 40 0 30 -15 56 -31
56 -4 0 -15 -7 -23 -16z"/>
<path d="M484 134 c59 -58 111 -102 115 -97 4 4 14 23 21 42 12 30 12 35 -1
39 -7 3 -66 31 -129 63 l-115 58 109 -105z"/>
<path d="M2053 172 c-68 -35 -112 -63 -112 -72 0 -8 6 -28 12 -44 l13 -30 104
102 c58 56 103 101 100 101 -3 -1 -55 -26 -117 -57z"/>
</g>
</svg>
